<svg xmlns="http://www.w3.org/2000/svg" xmlns:xlink="http://www.w3.org/1999/xlink" width="330" height="115" zoomAndPan="magnify" viewBox="0 0 1440 540.000001" preserveAspectRatio="xMidYMid meet" version="1.0"><defs><g/><clipPath id="831830f462"><rect x="0" width="1263" y="0" height="318"/></clipPath></defs><g fill="#ec651a" fill-opacity="1"><g transform="translate(82.948895, 259.418775)"><g><path d="M 111.824219 -213.652344 C 131.347656 -213.652344 148.4375 -210.335938 163.089844 -203.707031 C 178.253906 -196.84375 189.984375 -187.019531 198.285156 -174.230469 C 206.597656 -161.421875 210.757812 -146.414062 210.757812 -129.207031 C 210.757812 -112.207031 206.605469 -97.257812 198.308594 -84.363281 C 189.992188 -71.4375 178.234375 -61.59375 163.027344 -54.824219 C 148.394531 -48.304688 131.324219 -45.046875 111.824219 -45.046875 L 70.976562 -45.046875 L 70.976562 -55.910156 L 81.839844 -55.910156 L 81.839844 10.863281 L 13.179688 10.863281 L 13.179688 -213.652344 Z M 111.824219 -191.925781 L 24.046875 -191.925781 L 24.046875 -202.789062 L 34.910156 -202.789062 L 34.910156 0 L 24.046875 0 L 24.046875 -10.863281 L 70.976562 -10.863281 L 70.976562 0 L 60.113281 0 L 60.113281 -66.777344 L 111.824219 -66.777344 C 128.246094 -66.777344 142.367188 -69.40625 154.191406 -74.671875 C 165.445312 -79.683594 174.0625 -86.832031 180.039062 -96.121094 C 186.03125 -105.433594 189.027344 -116.464844 189.027344 -129.207031 C 189.027344 -142.125 186.039062 -153.191406 180.0625 -162.398438 C 174.070312 -171.628906 165.425781 -178.796875 154.128906 -183.910156 C 142.324219 -189.253906 128.222656 -191.925781 111.824219 -191.925781 Z M 109.214844 -105.015625 C 120.703125 -105.015625 129.109375 -107.222656 134.441406 -111.640625 C 139.160156 -115.554688 141.515625 -121.40625 141.515625 -129.207031 C 141.515625 -137.195312 139.160156 -143.148438 134.441406 -147.058594 C 129.109375 -151.476562 120.703125 -153.683594 109.214844 -153.683594 L 70.976562 -153.683594 L 70.976562 -164.546875 L 81.839844 -164.546875 L 81.839844 -94.152344 L 70.976562 -94.152344 L 70.976562 -105.015625 Z M 109.214844 -83.289062 L 60.113281 -83.289062 L 60.113281 -175.414062 L 109.214844 -175.414062 C 125.925781 -175.414062 138.957031 -171.539062 148.304688 -163.789062 C 158.265625 -155.53125 163.246094 -144.003906 163.246094 -129.207031 C 163.246094 -114.601562 158.265625 -103.167969 148.304688 -94.914062 C 138.957031 -87.164062 125.925781 -83.289062 109.214844 -83.289062 Z M 109.214844 -83.289062 "/></g></g></g><g fill="#ec651a" fill-opacity="1"><g transform="translate(274.728507, 259.418775)"><g><path d="M 144.316406 6.183594 L 105.210938 -50.308594 L 114.140625 -56.492188 L 114.140625 -45.628906 L 70.976562 -45.628906 L 70.976562 -56.492188 L 81.839844 -56.492188 L 81.839844 10.863281 L 13.179688 10.863281 L 13.179688 -213.652344 L 111.824219 -213.652344 C 131.347656 -213.652344 148.4375 -210.335938 163.089844 -203.707031 C 178.253906 -196.84375 189.984375 -187.019531 198.285156 -174.230469 C 206.597656 -161.421875 210.757812 -146.414062 210.757812 -129.207031 C 210.757812 -111.957031 206.53125 -96.964844 198.078125 -84.234375 C 189.652344 -71.539062 177.796875 -61.867188 162.507812 -55.21875 L 158.175781 -65.183594 L 167.085938 -71.398438 L 224.484375 10.863281 L 147.558594 10.863281 Z M 162.183594 -6.183594 L 153.25 0 L 153.25 -10.863281 L 203.65625 -10.863281 L 203.65625 0 L 194.75 6.214844 L 141.667969 -69.851562 L 153.84375 -75.144531 C 165.207031 -80.085938 173.917969 -87.121094 179.976562 -96.25 C 186.011719 -105.339844 189.027344 -116.324219 189.027344 -129.207031 C 189.027344 -142.125 186.039062 -153.191406 180.0625 -162.398438 C 174.070312 -171.628906 165.425781 -178.796875 154.128906 -183.910156 C 142.324219 -189.253906 128.222656 -191.925781 111.824219 -191.925781 L 24.046875 -191.925781 L 24.046875 -202.789062 L 34.910156 -202.789062 L 34.910156 0 L 24.046875 0 L 24.046875 -10.863281 L 70.976562 -10.863281 L 70.976562 0 L 60.113281 0 L 60.113281 -67.355469 L 119.832031 -67.355469 Z M 141.515625 -129.207031 C 141.515625 -137.195312 139.160156 -143.148438 134.441406 -147.058594 C 129.109375 -151.476562 120.703125 -153.683594 109.214844 -153.683594 L 70.976562 -153.683594 L 70.976562 -164.546875 L 81.839844 -164.546875 L 81.839844 -93.863281 L 70.976562 -93.863281 L 70.976562 -104.726562 L 109.214844 -104.726562 C 120.671875 -104.726562 129.058594 -106.964844 134.375 -111.441406 C 139.136719 -115.453125 141.515625 -121.375 141.515625 -129.207031 Z M 163.246094 -129.207031 C 163.246094 -114.632812 158.289062 -103.171875 148.371094 -94.824219 C 139.011719 -86.941406 125.957031 -83 109.214844 -83 L 60.113281 -83 L 60.113281 -175.414062 L 109.214844 -175.414062 C 125.925781 -175.414062 138.957031 -171.539062 148.304688 -163.789062 C 158.265625 -155.53125 163.246094 -144.003906 163.246094 -129.207031 Z M 163.246094 -129.207031 "/></g></g></g><g fill="#ec651a" fill-opacity="1"><g transform="translate(467.377268, 259.418775)"><g><path d="M 122.253906 14.339844 C 99.378906 14.339844 78.691406 9.371094 60.1875 -0.570312 C 41.53125 -10.589844 26.910156 -24.421875 16.324219 -42.066406 C 5.730469 -59.71875 0.433594 -79.496094 0.433594 -101.394531 C 0.433594 -123.292969 5.730469 -143.070312 16.324219 -160.722656 C 26.910156 -178.367188 41.53125 -192.199219 60.1875 -202.21875 C 78.691406 -212.160156 99.378906 -217.128906 122.253906 -217.128906 C 145.136719 -217.128906 165.785156 -212.15625 184.199219 -202.207031 C 202.730469 -192.195312 217.335938 -178.378906 228.011719 -160.765625 C 238.71875 -143.101562 244.070312 -123.308594 244.070312 -101.394531 C 244.070312 -79.476562 238.71875 -59.6875 228.011719 -42.023438 C 217.335938 -24.410156 202.730469 -10.59375 184.199219 -0.582031 C 165.785156 9.367188 145.136719 14.339844 122.253906 14.339844 Z M 122.253906 -7.386719 C 141.472656 -7.386719 158.679688 -11.492188 173.871094 -19.699219 C 188.941406 -27.839844 200.796875 -39.035156 209.429688 -53.285156 C 218.039062 -67.488281 222.34375 -83.523438 222.34375 -101.394531 C 222.34375 -119.265625 218.039062 -135.300781 209.429688 -149.503906 C 200.796875 -163.753906 188.941406 -174.949219 173.871094 -183.089844 C 158.679688 -191.296875 141.472656 -195.402344 122.253906 -195.402344 C 103.023438 -195.402344 85.761719 -191.292969 70.46875 -183.078125 C 55.324219 -174.945312 43.488281 -163.765625 34.953125 -149.542969 C 26.425781 -135.332031 22.164062 -119.28125 22.164062 -101.394531 C 22.164062 -83.507812 26.425781 -67.457031 34.953125 -53.246094 C 43.488281 -39.023438 55.324219 -27.84375 70.46875 -19.710938 C 85.761719 -11.496094 103.023438 -7.386719 122.253906 -7.386719 Z M 122.253906 -47.367188 C 132.308594 -47.367188 141.328125 -49.644531 149.320312 -54.195312 C 157.222656 -58.703125 163.4375 -65 167.957031 -73.089844 C 172.539062 -81.292969 174.832031 -90.726562 174.832031 -101.394531 C 174.832031 -112.0625 172.539062 -121.496094 167.957031 -129.699219 C 163.4375 -137.789062 157.222656 -144.085938 149.320312 -148.59375 C 141.328125 -153.144531 132.308594 -155.421875 122.253906 -155.421875 C 112.199219 -155.421875 103.175781 -153.144531 95.1875 -148.59375 C 87.28125 -144.085938 81.070312 -137.789062 76.546875 -129.699219 C 71.964844 -121.496094 69.671875 -112.0625 69.671875 -101.394531 C 69.671875 -90.726562 71.964844 -81.292969 76.546875 -73.089844 C 81.070312 -65 87.28125 -58.703125 95.1875 -54.195312 C 103.175781 -49.644531 112.199219 -47.367188 122.253906 -47.367188 Z M 122.253906 -25.636719 C 108.359375 -25.636719 95.75 -28.867188 84.425781 -35.320312 C 73.019531 -41.824219 64.070312 -50.878906 57.582031 -62.488281 C 51.15625 -73.984375 47.945312 -86.953125 47.945312 -101.394531 C 47.945312 -115.835938 51.15625 -128.800781 57.582031 -140.300781 C 64.070312 -151.910156 73.019531 -160.964844 84.425781 -167.46875 C 95.75 -173.921875 108.359375 -177.152344 122.253906 -177.152344 C 136.144531 -177.152344 148.753906 -173.921875 160.078125 -167.46875 C 171.488281 -160.964844 180.4375 -151.910156 186.925781 -140.300781 C 193.347656 -128.800781 196.5625 -115.835938 196.5625 -101.394531 C 196.5625 -86.953125 193.347656 -73.984375 186.925781 -62.488281 C 180.4375 -50.878906 171.488281 -41.824219 160.078125 -35.320312 C 148.753906 -28.867188 136.144531 -25.636719 122.253906 -25.636719 Z M 122.253906 -25.636719 "/></g></g></g><g fill="#ec651a" fill-opacity="1"><g transform="translate(691.603091, 259.418775)"><g><path d="M 197.71875 0.0273438 L 197.429688 -121.648438 L 208.292969 -121.671875 L 217.628906 -116.117188 L 154.789062 -10.574219 L 121.359375 -10.574219 L 58.796875 -113.421875 L 68.078125 -119.066406 L 78.941406 -119.066406 L 78.941406 10.863281 L 13.179688 10.863281 L 13.179688 -213.652344 L 69.003906 -213.652344 L 148.070312 -82.375 L 138.765625 -76.769531 L 129.421875 -82.3125 L 207.320312 -213.652344 L 262.871094 -213.652344 L 263.511719 10.863281 L 197.746094 10.863281 Z M 219.445312 -0.0273438 L 208.582031 0 L 208.582031 -10.863281 L 252.617188 -10.863281 L 252.617188 0 L 241.753906 0.03125 L 241.175781 -202.757812 L 252.039062 -202.789062 L 252.039062 -191.925781 L 213.507812 -191.925781 L 213.507812 -202.789062 L 222.851562 -197.246094 L 138.835938 -55.59375 L 53.558594 -197.183594 L 62.863281 -202.789062 L 62.863281 -191.925781 L 24.046875 -191.925781 L 24.046875 -202.789062 L 34.910156 -202.789062 L 34.910156 0 L 24.046875 0 L 24.046875 -10.863281 L 68.078125 -10.863281 L 68.078125 0 L 57.214844 0 L 57.214844 -157.828125 L 136.75 -27.082031 L 127.46875 -21.4375 L 127.46875 -32.300781 L 148.617188 -32.300781 L 148.617188 -21.4375 L 139.28125 -26.996094 L 219.0625 -161 Z M 219.445312 -0.0273438 "/></g></g></g><g fill="#ec651a" fill-opacity="1"><g transform="translate(947.985493, 259.418775)"><g><path d="M 122.253906 14.339844 C 99.378906 14.339844 78.691406 9.371094 60.1875 -0.570312 C 41.53125 -10.589844 26.910156 -24.421875 16.324219 -42.066406 C 5.730469 -59.71875 0.433594 -79.496094 0.433594 -101.394531 C 0.433594 -123.292969 5.730469 -143.070312 16.324219 -160.722656 C 26.910156 -178.367188 41.53125 -192.199219 60.1875 -202.21875 C 78.691406 -212.160156 99.378906 -217.128906 122.253906 -217.128906 C 145.136719 -217.128906 165.785156 -212.15625 184.199219 -202.207031 C 202.730469 -192.195312 217.335938 -178.378906 228.011719 -160.765625 C 238.71875 -143.101562 244.070312 -123.308594 244.070312 -101.394531 C 244.070312 -79.476562 238.71875 -59.6875 228.011719 -42.023438 C 217.335938 -24.410156 202.730469 -10.59375 184.199219 -0.582031 C 165.785156 9.367188 145.136719 14.339844 122.253906 14.339844 Z M 122.253906 -7.386719 C 141.472656 -7.386719 158.679688 -11.492188 173.871094 -19.699219 C 188.941406 -27.839844 200.796875 -39.035156 209.429688 -53.285156 C 218.039062 -67.488281 222.34375 -83.523438 222.34375 -101.394531 C 222.34375 -119.265625 218.039062 -135.300781 209.429688 -149.503906 C 200.796875 -163.753906 188.941406 -174.949219 173.871094 -183.089844 C 158.679688 -191.296875 141.472656 -195.402344 122.253906 -195.402344 C 103.023438 -195.402344 85.761719 -191.292969 70.46875 -183.078125 C 55.324219 -174.945312 43.488281 -163.765625 34.953125 -149.542969 C 26.425781 -135.332031 22.164062 -119.28125 22.164062 -101.394531 C 22.164062 -83.507812 26.425781 -67.457031 34.953125 -53.246094 C 43.488281 -39.023438 55.324219 -27.84375 70.46875 -19.710938 C 85.761719 -11.496094 103.023438 -7.386719 122.253906 -7.386719 Z M 122.253906 -47.367188 C 132.308594 -47.367188 141.328125 -49.644531 149.320312 -54.195312 C 157.222656 -58.703125 163.4375 -65 167.957031 -73.089844 C 172.539062 -81.292969 174.832031 -90.726562 174.832031 -101.394531 C 174.832031 -112.0625 172.539062 -121.496094 167.957031 -129.699219 C 163.4375 -137.789062 157.222656 -144.085938 149.320312 -148.59375 C 141.328125 -153.144531 132.308594 -155.421875 122.253906 -155.421875 C 112.199219 -155.421875 103.175781 -153.144531 95.1875 -148.59375 C 87.28125 -144.085938 81.070312 -137.789062 76.546875 -129.699219 C 71.964844 -121.496094 69.671875 -112.0625 69.671875 -101.394531 C 69.671875 -90.726562 71.964844 -81.292969 76.546875 -73.089844 C 81.070312 -65 87.28125 -58.703125 95.1875 -54.195312 C 103.175781 -49.644531 112.199219 -47.367188 122.253906 -47.367188 Z M 122.253906 -25.636719 C 108.359375 -25.636719 95.75 -28.867188 84.425781 -35.320312 C 73.019531 -41.824219 64.070312 -50.878906 57.582031 -62.488281 C 51.15625 -73.984375 47.945312 -86.953125 47.945312 -101.394531 C 47.945312 -115.835938 51.15625 -128.800781 57.582031 -140.300781 C 64.070312 -151.910156 73.019531 -160.964844 84.425781 -167.46875 C 95.75 -173.921875 108.359375 -177.152344 122.253906 -177.152344 C 136.144531 -177.152344 148.753906 -173.921875 160.078125 -167.46875 C 171.488281 -160.964844 180.4375 -151.910156 186.925781 -140.300781 C 193.347656 -128.800781 196.5625 -115.835938 196.5625 -101.394531 C 196.5625 -86.953125 193.347656 -73.984375 186.925781 -62.488281 C 180.4375 -50.878906 171.488281 -41.824219 160.078125 -35.320312 C 148.753906 -28.867188 136.144531 -25.636719 122.253906 -25.636719 Z M 122.253906 -25.636719 "/></g></g></g><g fill="#ec651a" fill-opacity="1"><g transform="translate(1172.211272, 259.418775)"><g><path d="M 90.675781 14.339844 C 73.617188 14.339844 57.105469 12.023438 41.148438 7.390625 C 24.875 2.667969 11.660156 -3.585938 1.503906 -11.363281 L -5.332031 -16.601562 L 19.652344 -72.023438 L 30.46875 -64.09375 C 38.214844 -58.414062 47.519531 -53.820312 58.378906 -50.316406 C 69.269531 -46.804688 80.128906 -45.046875 90.964844 -45.046875 C 102.226562 -45.046875 110.164062 -46.484375 114.78125 -49.351562 C 116.492188 -50.414062 117.699219 -51.519531 118.390625 -52.667969 C 118.9375 -53.570312 119.210938 -54.652344 119.210938 -55.910156 C 119.210938 -57.382812 118.609375 -58.625 117.40625 -59.640625 C 114.722656 -61.914062 111.101562 -63.796875 106.554688 -65.289062 C 100.976562 -67.117188 93.324219 -69.15625 83.597656 -71.398438 C 67.667969 -75.183594 54.566406 -78.988281 44.296875 -82.8125 C 32.71875 -87.125 22.800781 -94.035156 14.542969 -103.539062 C 5.714844 -113.695312 1.304688 -126.882812 1.304688 -143.109375 C 1.304688 -157.085938 5.097656 -169.765625 12.6875 -181.148438 C 20.242188 -192.480469 31.414062 -201.371094 46.210938 -207.824219 C 60.4375 -214.027344 77.578125 -217.128906 97.628906 -217.128906 C 111.460938 -217.128906 124.988281 -215.476562 138.214844 -212.167969 C 151.683594 -208.800781 163.542969 -203.917969 173.78125 -197.515625 L 181.527344 -192.675781 L 158.945312 -137.117188 L 148.183594 -143.21875 C 131.109375 -152.902344 114.160156 -157.742188 97.339844 -157.742188 C 86.425781 -157.742188 78.75 -156.238281 74.3125 -153.234375 C 72.59375 -152.070312 71.371094 -150.835938 70.640625 -149.535156 C 69.996094 -148.382812 69.671875 -147.015625 69.671875 -145.429688 C 69.671875 -144.238281 69.921875 -143.285156 70.421875 -142.574219 C 71.121094 -141.578125 72.402344 -140.644531 74.265625 -139.773438 C 80.785156 -136.730469 91.09375 -133.65625 105.183594 -130.542969 C 121.183594 -126.746094 134.316406 -122.933594 144.585938 -119.105469 C 156.121094 -114.808594 166.011719 -108.03125 174.257812 -98.769531 C 183.140625 -88.789062 187.578125 -75.664062 187.578125 -59.386719 C 187.578125 -45.578125 183.722656 -32.976562 176.007812 -21.578125 C 168.355469 -10.269531 157.089844 -1.394531 142.210938 5.046875 C 127.894531 11.242188 110.714844 14.339844 90.675781 14.339844 Z M 90.675781 -7.386719 C 107.714844 -7.386719 122.019531 -9.890625 133.582031 -14.894531 C 144.582031 -19.65625 152.726562 -25.945312 158.015625 -33.753906 C 163.238281 -41.476562 165.851562 -50.019531 165.851562 -59.386719 C 165.851562 -70.152344 163.242188 -78.460938 158.027344 -84.320312 C 152.175781 -90.894531 145.164062 -95.703125 137 -98.746094 C 127.570312 -102.257812 115.402344 -105.785156 100.5 -109.328125 C 84.851562 -112.78125 73.042969 -116.367188 65.078125 -120.085938 C 59.703125 -122.59375 55.550781 -125.933594 52.628906 -130.105469 C 49.507812 -134.558594 47.945312 -139.667969 47.945312 -145.429688 C 47.945312 -150.796875 49.191406 -155.703125 51.683594 -160.15625 C 54.09375 -164.449219 57.574219 -168.140625 62.132812 -171.226562 C 70.25 -176.722656 81.984375 -179.46875 97.339844 -179.46875 C 117.984375 -179.46875 138.503906 -173.6875 158.898438 -162.121094 L 153.539062 -152.671875 L 143.476562 -156.761719 L 157.960938 -192.394531 L 168.023438 -188.304688 L 162.265625 -179.089844 C 153.96875 -184.277344 144.195312 -188.277344 132.945312 -191.089844 C 121.449219 -193.964844 109.675781 -195.402344 97.628906 -195.402344 C 80.597656 -195.402344 66.355469 -192.902344 54.894531 -187.90625 C 44.003906 -183.15625 35.960938 -176.886719 30.765625 -169.097656 C 25.609375 -161.359375 23.03125 -152.699219 23.03125 -143.109375 C 23.03125 -132.300781 25.667969 -123.859375 30.941406 -117.792969 C 36.78125 -111.070312 43.761719 -106.199219 51.882812 -103.171875 C 61.3125 -99.660156 73.511719 -96.125 88.484375 -92.570312 C 98.84375 -90.179688 107.125 -87.96875 113.324219 -85.933594 C 120.558594 -83.5625 126.597656 -80.328125 131.441406 -76.226562 C 137.773438 -70.871094 140.9375 -64.097656 140.9375 -55.910156 C 140.9375 -50.605469 139.617188 -45.773438 136.976562 -41.414062 C 134.484375 -37.296875 130.910156 -33.789062 126.246094 -30.894531 C 118.117188 -25.84375 106.359375 -23.320312 90.964844 -23.320312 C 77.851562 -23.320312 64.765625 -25.425781 51.707031 -29.640625 C 38.617188 -33.863281 27.257812 -39.503906 17.621094 -46.570312 L 24.046875 -55.332031 L 33.949219 -50.867188 L 18.015625 -15.523438 L 8.113281 -19.988281 L 14.71875 -28.613281 C 22.714844 -22.488281 33.546875 -17.441406 47.207031 -13.476562 C 61.1875 -9.417969 75.675781 -7.386719 90.675781 -7.386719 Z M 90.675781 -7.386719 "/></g></g></g><g fill="#ec651a" fill-opacity="1"><g transform="translate(82.948895, 259.418775)"><g><path d="M 111.828125 -202.796875 C 129.785156 -202.796875 145.378906 -199.800781 158.609375 -193.8125 C 171.835938 -187.820312 182.023438 -179.320312 189.171875 -168.3125 C 196.316406 -157.300781 199.890625 -144.265625 199.890625 -129.203125 C 199.890625 -114.335938 196.316406 -101.347656 189.171875 -90.234375 C 182.023438 -79.128906 171.835938 -70.628906 158.609375 -64.734375 C 145.378906 -58.847656 129.785156 -55.90625 111.828125 -55.90625 L 70.984375 -55.90625 L 70.984375 0 L 24.046875 0 L 24.046875 -202.796875 Z M 109.21875 -94.15625 C 123.3125 -94.15625 134.03125 -97.195312 141.375 -103.28125 C 148.71875 -109.363281 152.390625 -118.003906 152.390625 -129.203125 C 152.390625 -140.597656 148.71875 -149.335938 141.375 -155.421875 C 134.03125 -161.503906 123.3125 -164.546875 109.21875 -164.546875 L 70.984375 -164.546875 L 70.984375 -94.15625 Z M 109.21875 -94.15625 "/></g></g></g><g fill="#ec651a" fill-opacity="1"><g transform="translate(274.728507, 259.418775)"><g><path d="M 153.25 0 L 114.140625 -56.484375 L 70.984375 -56.484375 L 70.984375 0 L 24.046875 0 L 24.046875 -202.796875 L 111.828125 -202.796875 C 129.785156 -202.796875 145.378906 -199.800781 158.609375 -193.8125 C 171.835938 -187.820312 182.023438 -179.320312 189.171875 -168.3125 C 196.316406 -157.300781 199.890625 -144.265625 199.890625 -129.203125 C 199.890625 -114.140625 196.269531 -101.148438 189.03125 -90.234375 C 181.789062 -79.328125 171.503906 -70.976562 158.171875 -65.1875 L 203.65625 0 Z M 152.390625 -129.203125 C 152.390625 -140.597656 148.71875 -149.335938 141.375 -155.421875 C 134.03125 -161.503906 123.3125 -164.546875 109.21875 -164.546875 L 70.984375 -164.546875 L 70.984375 -93.859375 L 109.21875 -93.859375 C 123.3125 -93.859375 134.03125 -96.945312 141.375 -103.125 C 148.71875 -109.3125 152.390625 -118.003906 152.390625 -129.203125 Z M 152.390625 -129.203125 "/></g></g></g><g fill="#ec651a" fill-opacity="1"><g transform="translate(467.377268, 259.418775)"><g><path d="M 122.25 3.46875 C 101.195312 3.46875 82.222656 -1.066406 65.328125 -10.140625 C 48.429688 -19.210938 35.203125 -31.71875 25.640625 -47.65625 C 16.078125 -63.59375 11.296875 -81.503906 11.296875 -101.390625 C 11.296875 -121.285156 16.078125 -139.195312 25.640625 -155.125 C 35.203125 -171.0625 48.429688 -183.566406 65.328125 -192.640625 C 82.222656 -201.722656 101.195312 -206.265625 122.25 -206.265625 C 143.300781 -206.265625 162.226562 -201.722656 179.03125 -192.640625 C 195.832031 -183.566406 209.0625 -171.0625 218.71875 -155.125 C 228.382812 -139.195312 233.21875 -121.285156 233.21875 -101.390625 C 233.21875 -81.503906 228.382812 -63.59375 218.71875 -47.65625 C 209.0625 -31.71875 195.832031 -19.210938 179.03125 -10.140625 C 162.226562 -1.066406 143.300781 3.46875 122.25 3.46875 Z M 122.25 -36.5 C 134.226562 -36.5 145.046875 -39.25 154.703125 -44.75 C 164.359375 -50.257812 171.9375 -57.9375 177.4375 -67.78125 C 182.945312 -77.632812 185.703125 -88.835938 185.703125 -101.390625 C 185.703125 -113.953125 182.945312 -125.15625 177.4375 -135 C 171.9375 -144.851562 164.359375 -152.53125 154.703125 -158.03125 C 145.046875 -163.539062 134.226562 -166.296875 122.25 -166.296875 C 110.28125 -166.296875 99.46875 -163.539062 89.8125 -158.03125 C 80.15625 -152.53125 72.570312 -144.851562 67.0625 -135 C 61.5625 -125.15625 58.8125 -113.953125 58.8125 -101.390625 C 58.8125 -88.835938 61.5625 -77.632812 67.0625 -67.78125 C 72.570312 -57.9375 80.15625 -50.257812 89.8125 -44.75 C 99.46875 -39.25 110.28125 -36.5 122.25 -36.5 Z M 122.25 -36.5 "/></g></g></g><g fill="#ec651a" fill-opacity="1"><g transform="translate(691.603091, 259.418775)"><g><path d="M 208.59375 0 L 208.296875 -121.671875 L 148.625 -21.4375 L 127.46875 -21.4375 L 68.078125 -119.0625 L 68.078125 0 L 24.046875 0 L 24.046875 -202.796875 L 62.859375 -202.796875 L 138.765625 -76.765625 L 213.515625 -202.796875 L 252.046875 -202.796875 L 252.625 0 Z M 208.59375 0 "/></g></g></g><g fill="#ec651a" fill-opacity="1"><g transform="translate(947.985493, 259.418775)"><g><path d="M 122.25 3.46875 C 101.195312 3.46875 82.222656 -1.066406 65.328125 -10.140625 C 48.429688 -19.210938 35.203125 -31.71875 25.640625 -47.65625 C 16.078125 -63.59375 11.296875 -81.503906 11.296875 -101.390625 C 11.296875 -121.285156 16.078125 -139.195312 25.640625 -155.125 C 35.203125 -171.0625 48.429688 -183.566406 65.328125 -192.640625 C 82.222656 -201.722656 101.195312 -206.265625 122.25 -206.265625 C 143.300781 -206.265625 162.226562 -201.722656 179.03125 -192.640625 C 195.832031 -183.566406 209.0625 -171.0625 218.71875 -155.125 C 228.382812 -139.195312 233.21875 -121.285156 233.21875 -101.390625 C 233.21875 -81.503906 228.382812 -63.59375 218.71875 -47.65625 C 209.0625 -31.71875 195.832031 -19.210938 179.03125 -10.140625 C 162.226562 -1.066406 143.300781 3.46875 122.25 3.46875 Z M 122.25 -36.5 C 134.226562 -36.5 145.046875 -39.25 154.703125 -44.75 C 164.359375 -50.257812 171.9375 -57.9375 177.4375 -67.78125 C 182.945312 -77.632812 185.703125 -88.835938 185.703125 -101.390625 C 185.703125 -113.953125 182.945312 -125.15625 177.4375 -135 C 171.9375 -144.851562 164.359375 -152.53125 154.703125 -158.03125 C 145.046875 -163.539062 134.226562 -166.296875 122.25 -166.296875 C 110.28125 -166.296875 99.46875 -163.539062 89.8125 -158.03125 C 80.15625 -152.53125 72.570312 -144.851562 67.0625 -135 C 61.5625 -125.15625 58.8125 -113.953125 58.8125 -101.390625 C 58.8125 -88.835938 61.5625 -77.632812 67.0625 -67.78125 C 72.570312 -57.9375 80.15625 -50.257812 89.8125 -44.75 C 99.46875 -39.25 110.28125 -36.5 122.25 -36.5 Z M 122.25 -36.5 "/></g></g></g><g fill="#ec651a" fill-opacity="1"><g transform="translate(1172.211272, 259.418775)"><g><path d="M 90.671875 3.46875 C 74.640625 3.46875 59.140625 1.296875 44.171875 -3.046875 C 29.210938 -7.390625 17.191406 -13.035156 8.109375 -19.984375 L 24.046875 -55.328125 C 32.734375 -48.953125 43.0625 -43.832031 55.03125 -39.96875 C 67.007812 -36.113281 78.988281 -34.1875 90.96875 -34.1875 C 104.289062 -34.1875 114.140625 -36.164062 120.515625 -40.125 C 126.890625 -44.082031 130.078125 -49.34375 130.078125 -55.90625 C 130.078125 -60.738281 128.191406 -64.75 124.421875 -67.9375 C 120.660156 -71.125 115.832031 -73.679688 109.9375 -75.609375 C 104.050781 -77.546875 96.085938 -79.671875 86.046875 -81.984375 C 70.585938 -85.648438 57.929688 -89.316406 48.078125 -92.984375 C 38.234375 -96.660156 29.785156 -102.550781 22.734375 -110.65625 C 15.691406 -118.769531 12.171875 -129.585938 12.171875 -143.109375 C 12.171875 -154.890625 15.351562 -165.5625 21.71875 -175.125 C 28.09375 -184.6875 37.703125 -192.265625 50.546875 -197.859375 C 63.390625 -203.460938 79.082031 -206.265625 97.625 -206.265625 C 110.570312 -206.265625 123.222656 -204.71875 135.578125 -201.625 C 147.941406 -198.539062 158.757812 -194.101562 168.03125 -188.3125 L 153.546875 -152.671875 C 134.804688 -163.296875 116.070312 -168.609375 97.34375 -168.609375 C 84.207031 -168.609375 74.5 -166.484375 68.21875 -162.234375 C 61.945312 -157.984375 58.8125 -152.382812 58.8125 -145.4375 C 58.8125 -138.476562 62.429688 -133.304688 69.671875 -129.921875 C 76.910156 -126.546875 87.96875 -123.21875 102.84375 -119.9375 C 118.289062 -116.269531 130.941406 -112.597656 140.796875 -108.921875 C 150.648438 -105.253906 159.097656 -99.460938 166.140625 -91.546875 C 173.191406 -83.628906 176.71875 -72.910156 176.71875 -59.390625 C 176.71875 -47.796875 173.484375 -37.21875 167.015625 -27.65625 C 160.546875 -18.101562 150.835938 -10.523438 137.890625 -4.921875 C 124.953125 0.671875 109.210938 3.46875 90.671875 3.46875 Z M 90.671875 3.46875 "/></g></g></g><g transform="matrix(1, 0, 0, 1, 85, 221)"><g clip-path="url(#831830f462)"><g fill="#ffffff" fill-opacity="1"><g transform="translate(0.401687, 253.408037)"><g><path d="M 21.71875 -183.1875 L 104.9375 -183.1875 C 124.832031 -183.1875 142.410156 -179.390625 157.671875 -171.796875 C 172.941406 -164.210938 184.804688 -153.53125 193.265625 -139.75 C 201.722656 -125.96875 205.953125 -109.914062 205.953125 -91.59375 C 205.953125 -73.28125 201.722656 -57.226562 193.265625 -43.4375 C 184.804688 -29.65625 172.941406 -18.96875 157.671875 -11.375 C 142.410156 -3.789062 124.832031 0 104.9375 0 L 21.71875 0 Z M 102.84375 -34.8125 C 121.164062 -34.8125 135.78125 -39.910156 146.6875 -50.109375 C 157.59375 -60.316406 163.046875 -74.144531 163.046875 -91.59375 C 163.046875 -109.039062 157.59375 -122.867188 146.6875 -133.078125 C 135.78125 -143.285156 121.164062 -148.390625 102.84375 -148.390625 L 64.125 -148.390625 L 64.125 -34.8125 Z M 102.84375 -34.8125 "/></g></g></g><g fill="#ffffff" fill-opacity="1"><g transform="translate(198.247499, 253.408037)"><g><path d="M 142.359375 -39.25 L 57.3125 -39.25 L 41.09375 0 L -2.359375 0 L 79.296875 -183.1875 L 121.171875 -183.1875 L 203.078125 0 L 158.59375 0 Z M 129.015625 -71.4375 L 99.96875 -141.578125 L 70.921875 -71.4375 Z M 129.015625 -71.4375 "/></g></g></g><g fill="#ffffff" fill-opacity="1"><g transform="translate(380.391203, 253.408037)"><g/></g></g><g fill="#ffffff" fill-opacity="1"><g transform="translate(436.132816, 253.408037)"><g><path d="M 156.234375 -95.265625 C 166.703125 -91.941406 174.898438 -86.398438 180.828125 -78.640625 C 186.765625 -70.878906 189.734375 -61.328125 189.734375 -49.984375 C 189.734375 -33.929688 183.492188 -21.585938 171.015625 -12.953125 C 158.546875 -4.316406 140.359375 0 116.453125 0 L 21.71875 0 L 21.71875 -183.1875 L 111.21875 -183.1875 C 133.550781 -183.1875 150.691406 -178.910156 162.640625 -170.359375 C 174.597656 -161.816406 180.578125 -150.21875 180.578125 -135.5625 C 180.578125 -126.664062 178.4375 -118.726562 174.15625 -111.75 C 169.882812 -104.769531 163.910156 -99.273438 156.234375 -95.265625 Z M 63.859375 -151.265625 L 63.859375 -108.078125 L 105.984375 -108.078125 C 116.453125 -108.078125 124.390625 -109.910156 129.796875 -113.578125 C 135.210938 -117.242188 137.921875 -122.65625 137.921875 -129.8125 C 137.921875 -136.957031 135.210938 -142.316406 129.796875 -145.890625 C 124.390625 -149.472656 116.453125 -151.265625 105.984375 -151.265625 Z M 113.3125 -31.921875 C 124.476562 -31.921875 132.894531 -33.753906 138.5625 -37.421875 C 144.238281 -41.085938 147.078125 -46.757812 147.078125 -54.4375 C 147.078125 -69.613281 135.820312 -77.203125 113.3125 -77.203125 L 63.859375 -77.203125 L 63.859375 -31.921875 Z M 113.3125 -31.921875 "/></g></g></g><g fill="#ffffff" fill-opacity="1"><g transform="translate(618.014827, 253.408037)"><g><path d="M 21.71875 -183.1875 L 64.125 -183.1875 L 64.125 -34.546875 L 155.96875 -34.546875 L 155.96875 0 L 21.71875 0 Z M 21.71875 -183.1875 "/></g></g></g><g fill="#ffffff" fill-opacity="1"><g transform="translate(757.762758, 253.408037)"><g><path d="M 142.359375 -39.25 L 57.3125 -39.25 L 41.09375 0 L -2.359375 0 L 79.296875 -183.1875 L 121.171875 -183.1875 L 203.078125 0 L 158.59375 0 Z M 129.015625 -71.4375 L 99.96875 -141.578125 L 70.921875 -71.4375 Z M 129.015625 -71.4375 "/></g></g></g><g fill="#ffffff" fill-opacity="1"><g transform="translate(939.906478, 253.408037)"><g><path d="M 170.109375 -34.546875 L 170.109375 0 L 9.9375 0 L 9.9375 -27.484375 L 110.4375 -148.640625 L 12.03125 -148.640625 L 12.03125 -183.1875 L 166.1875 -183.1875 L 166.1875 -155.71875 L 65.953125 -34.546875 Z M 170.109375 -34.546875 "/></g></g></g><g fill="#ffffff" fill-opacity="1"><g transform="translate(1097.188445, 253.408037)"><g><path d="M 163.5625 -34.015625 L 163.5625 0 L 21.71875 0 L 21.71875 -183.1875 L 160.15625 -183.1875 L 160.15625 -149.171875 L 63.859375 -149.171875 L 63.859375 -109.390625 L 148.90625 -109.390625 L 148.90625 -76.421875 L 63.859375 -76.421875 L 63.859375 -34.015625 Z M 163.5625 -34.015625 "/></g></g></g></g></g></svg>